<mxfile host="app.diagrams.net" agent="Mozilla/5.0 (Windows NT 10.0; Win64; x64) AppleWebKit/537.36 (KHTML, like Gecko) Chrome/136.0.0.0 Safari/537.36" version="27.0.6">
  <diagram name="Page-1" id="WXLmvOLAEFENimIErHX3">
    <mxGraphModel dx="2330" dy="2074" grid="1" gridSize="10" guides="1" tooltips="1" connect="1" arrows="1" fold="1" page="1" pageScale="1" pageWidth="827" pageHeight="1169" math="0" shadow="0">
      <root>
        <mxCell id="0" />
        <mxCell id="1" parent="0" />
        <mxCell id="hvP5qHsnFxrdEin9bqOB-1" value="Customer" style="shape=table;startSize=30;container=1;collapsible=1;childLayout=tableLayout;fixedRows=1;rowLines=0;fontStyle=1;align=center;resizeLast=1;html=1;" vertex="1" parent="1">
          <mxGeometry x="40" y="100" width="180" height="240" as="geometry" />
        </mxCell>
        <mxCell id="hvP5qHsnFxrdEin9bqOB-2" value="" style="shape=tableRow;horizontal=0;startSize=0;swimlaneHead=0;swimlaneBody=0;fillColor=none;collapsible=0;dropTarget=0;points=[[0,0.5],[1,0.5]];portConstraint=eastwest;top=0;left=0;right=0;bottom=1;" vertex="1" parent="hvP5qHsnFxrdEin9bqOB-1">
          <mxGeometry y="30" width="180" height="30" as="geometry" />
        </mxCell>
        <mxCell id="hvP5qHsnFxrdEin9bqOB-3" value="PK" style="shape=partialRectangle;connectable=0;fillColor=none;top=0;left=0;bottom=0;right=0;fontStyle=1;overflow=hidden;whiteSpace=wrap;html=1;" vertex="1" parent="hvP5qHsnFxrdEin9bqOB-2">
          <mxGeometry width="26" height="30" as="geometry">
            <mxRectangle width="26" height="30" as="alternateBounds" />
          </mxGeometry>
        </mxCell>
        <mxCell id="hvP5qHsnFxrdEin9bqOB-4" value="User_ID" style="shape=partialRectangle;connectable=0;fillColor=none;top=0;left=0;bottom=0;right=0;align=left;spacingLeft=6;fontStyle=5;overflow=hidden;whiteSpace=wrap;html=1;" vertex="1" parent="hvP5qHsnFxrdEin9bqOB-2">
          <mxGeometry x="26" width="154" height="30" as="geometry">
            <mxRectangle width="154" height="30" as="alternateBounds" />
          </mxGeometry>
        </mxCell>
        <mxCell id="hvP5qHsnFxrdEin9bqOB-31" style="shape=tableRow;horizontal=0;startSize=0;swimlaneHead=0;swimlaneBody=0;fillColor=none;collapsible=0;dropTarget=0;points=[[0,0.5],[1,0.5]];portConstraint=eastwest;top=0;left=0;right=0;bottom=1;" vertex="1" parent="hvP5qHsnFxrdEin9bqOB-1">
          <mxGeometry y="60" width="180" height="30" as="geometry" />
        </mxCell>
        <mxCell id="hvP5qHsnFxrdEin9bqOB-32" value="FK" style="shape=partialRectangle;connectable=0;fillColor=none;top=0;left=0;bottom=0;right=0;fontStyle=1;overflow=hidden;whiteSpace=wrap;html=1;" vertex="1" parent="hvP5qHsnFxrdEin9bqOB-31">
          <mxGeometry width="26" height="30" as="geometry">
            <mxRectangle width="26" height="30" as="alternateBounds" />
          </mxGeometry>
        </mxCell>
        <mxCell id="hvP5qHsnFxrdEin9bqOB-33" value="Legal Docs" style="shape=partialRectangle;connectable=0;fillColor=none;top=0;left=0;bottom=0;right=0;align=left;spacingLeft=6;fontStyle=5;overflow=hidden;whiteSpace=wrap;html=1;" vertex="1" parent="hvP5qHsnFxrdEin9bqOB-31">
          <mxGeometry x="26" width="154" height="30" as="geometry">
            <mxRectangle width="154" height="30" as="alternateBounds" />
          </mxGeometry>
        </mxCell>
        <mxCell id="hvP5qHsnFxrdEin9bqOB-111" style="shape=tableRow;horizontal=0;startSize=0;swimlaneHead=0;swimlaneBody=0;fillColor=none;collapsible=0;dropTarget=0;points=[[0,0.5],[1,0.5]];portConstraint=eastwest;top=0;left=0;right=0;bottom=1;" vertex="1" parent="hvP5qHsnFxrdEin9bqOB-1">
          <mxGeometry y="90" width="180" height="30" as="geometry" />
        </mxCell>
        <mxCell id="hvP5qHsnFxrdEin9bqOB-112" value="FK" style="shape=partialRectangle;connectable=0;fillColor=none;top=0;left=0;bottom=0;right=0;fontStyle=1;overflow=hidden;whiteSpace=wrap;html=1;" vertex="1" parent="hvP5qHsnFxrdEin9bqOB-111">
          <mxGeometry width="26" height="30" as="geometry">
            <mxRectangle width="26" height="30" as="alternateBounds" />
          </mxGeometry>
        </mxCell>
        <mxCell id="hvP5qHsnFxrdEin9bqOB-113" value="Room ID" style="shape=partialRectangle;connectable=0;fillColor=none;top=0;left=0;bottom=0;right=0;align=left;spacingLeft=6;fontStyle=5;overflow=hidden;whiteSpace=wrap;html=1;" vertex="1" parent="hvP5qHsnFxrdEin9bqOB-111">
          <mxGeometry x="26" width="154" height="30" as="geometry">
            <mxRectangle width="154" height="30" as="alternateBounds" />
          </mxGeometry>
        </mxCell>
        <mxCell id="hvP5qHsnFxrdEin9bqOB-165" style="shape=tableRow;horizontal=0;startSize=0;swimlaneHead=0;swimlaneBody=0;fillColor=none;collapsible=0;dropTarget=0;points=[[0,0.5],[1,0.5]];portConstraint=eastwest;top=0;left=0;right=0;bottom=1;" vertex="1" parent="hvP5qHsnFxrdEin9bqOB-1">
          <mxGeometry y="120" width="180" height="30" as="geometry" />
        </mxCell>
        <mxCell id="hvP5qHsnFxrdEin9bqOB-166" style="shape=partialRectangle;connectable=0;fillColor=none;top=0;left=0;bottom=0;right=0;fontStyle=1;overflow=hidden;whiteSpace=wrap;html=1;" vertex="1" parent="hvP5qHsnFxrdEin9bqOB-165">
          <mxGeometry width="26" height="30" as="geometry">
            <mxRectangle width="26" height="30" as="alternateBounds" />
          </mxGeometry>
        </mxCell>
        <mxCell id="hvP5qHsnFxrdEin9bqOB-167" value="Bill_no" style="shape=partialRectangle;connectable=0;fillColor=none;top=0;left=0;bottom=0;right=0;align=left;spacingLeft=6;fontStyle=5;overflow=hidden;whiteSpace=wrap;html=1;" vertex="1" parent="hvP5qHsnFxrdEin9bqOB-165">
          <mxGeometry x="26" width="154" height="30" as="geometry">
            <mxRectangle width="154" height="30" as="alternateBounds" />
          </mxGeometry>
        </mxCell>
        <mxCell id="hvP5qHsnFxrdEin9bqOB-5" value="" style="shape=tableRow;horizontal=0;startSize=0;swimlaneHead=0;swimlaneBody=0;fillColor=none;collapsible=0;dropTarget=0;points=[[0,0.5],[1,0.5]];portConstraint=eastwest;top=0;left=0;right=0;bottom=0;" vertex="1" parent="hvP5qHsnFxrdEin9bqOB-1">
          <mxGeometry y="150" width="180" height="30" as="geometry" />
        </mxCell>
        <mxCell id="hvP5qHsnFxrdEin9bqOB-6" value="" style="shape=partialRectangle;connectable=0;fillColor=none;top=0;left=0;bottom=0;right=0;editable=1;overflow=hidden;whiteSpace=wrap;html=1;" vertex="1" parent="hvP5qHsnFxrdEin9bqOB-5">
          <mxGeometry width="26" height="30" as="geometry">
            <mxRectangle width="26" height="30" as="alternateBounds" />
          </mxGeometry>
        </mxCell>
        <mxCell id="hvP5qHsnFxrdEin9bqOB-7" value="First Name" style="shape=partialRectangle;connectable=0;fillColor=none;top=0;left=0;bottom=0;right=0;align=left;spacingLeft=6;overflow=hidden;whiteSpace=wrap;html=1;" vertex="1" parent="hvP5qHsnFxrdEin9bqOB-5">
          <mxGeometry x="26" width="154" height="30" as="geometry">
            <mxRectangle width="154" height="30" as="alternateBounds" />
          </mxGeometry>
        </mxCell>
        <mxCell id="hvP5qHsnFxrdEin9bqOB-8" value="" style="shape=tableRow;horizontal=0;startSize=0;swimlaneHead=0;swimlaneBody=0;fillColor=none;collapsible=0;dropTarget=0;points=[[0,0.5],[1,0.5]];portConstraint=eastwest;top=0;left=0;right=0;bottom=0;" vertex="1" parent="hvP5qHsnFxrdEin9bqOB-1">
          <mxGeometry y="180" width="180" height="30" as="geometry" />
        </mxCell>
        <mxCell id="hvP5qHsnFxrdEin9bqOB-9" value="" style="shape=partialRectangle;connectable=0;fillColor=none;top=0;left=0;bottom=0;right=0;editable=1;overflow=hidden;whiteSpace=wrap;html=1;" vertex="1" parent="hvP5qHsnFxrdEin9bqOB-8">
          <mxGeometry width="26" height="30" as="geometry">
            <mxRectangle width="26" height="30" as="alternateBounds" />
          </mxGeometry>
        </mxCell>
        <mxCell id="hvP5qHsnFxrdEin9bqOB-10" value="Last Name" style="shape=partialRectangle;connectable=0;fillColor=none;top=0;left=0;bottom=0;right=0;align=left;spacingLeft=6;overflow=hidden;whiteSpace=wrap;html=1;" vertex="1" parent="hvP5qHsnFxrdEin9bqOB-8">
          <mxGeometry x="26" width="154" height="30" as="geometry">
            <mxRectangle width="154" height="30" as="alternateBounds" />
          </mxGeometry>
        </mxCell>
        <mxCell id="hvP5qHsnFxrdEin9bqOB-11" value="" style="shape=tableRow;horizontal=0;startSize=0;swimlaneHead=0;swimlaneBody=0;fillColor=none;collapsible=0;dropTarget=0;points=[[0,0.5],[1,0.5]];portConstraint=eastwest;top=0;left=0;right=0;bottom=0;" vertex="1" parent="hvP5qHsnFxrdEin9bqOB-1">
          <mxGeometry y="210" width="180" height="30" as="geometry" />
        </mxCell>
        <mxCell id="hvP5qHsnFxrdEin9bqOB-12" value="" style="shape=partialRectangle;connectable=0;fillColor=none;top=0;left=0;bottom=0;right=0;editable=1;overflow=hidden;whiteSpace=wrap;html=1;" vertex="1" parent="hvP5qHsnFxrdEin9bqOB-11">
          <mxGeometry width="26" height="30" as="geometry">
            <mxRectangle width="26" height="30" as="alternateBounds" />
          </mxGeometry>
        </mxCell>
        <mxCell id="hvP5qHsnFxrdEin9bqOB-13" value="Mobile_no" style="shape=partialRectangle;connectable=0;fillColor=none;top=0;left=0;bottom=0;right=0;align=left;spacingLeft=6;overflow=hidden;whiteSpace=wrap;html=1;" vertex="1" parent="hvP5qHsnFxrdEin9bqOB-11">
          <mxGeometry x="26" width="154" height="30" as="geometry">
            <mxRectangle width="154" height="30" as="alternateBounds" />
          </mxGeometry>
        </mxCell>
        <mxCell id="hvP5qHsnFxrdEin9bqOB-34" value="Room" style="shape=table;startSize=30;container=1;collapsible=1;childLayout=tableLayout;fixedRows=1;rowLines=0;fontStyle=1;align=center;resizeLast=1;html=1;" vertex="1" parent="1">
          <mxGeometry x="310" y="-49" width="180" height="300" as="geometry" />
        </mxCell>
        <mxCell id="hvP5qHsnFxrdEin9bqOB-35" value="" style="shape=tableRow;horizontal=0;startSize=0;swimlaneHead=0;swimlaneBody=0;fillColor=none;collapsible=0;dropTarget=0;points=[[0,0.5],[1,0.5]];portConstraint=eastwest;top=0;left=0;right=0;bottom=1;" vertex="1" parent="hvP5qHsnFxrdEin9bqOB-34">
          <mxGeometry y="30" width="180" height="30" as="geometry" />
        </mxCell>
        <mxCell id="hvP5qHsnFxrdEin9bqOB-36" value="PK" style="shape=partialRectangle;connectable=0;fillColor=none;top=0;left=0;bottom=0;right=0;fontStyle=1;overflow=hidden;whiteSpace=wrap;html=1;" vertex="1" parent="hvP5qHsnFxrdEin9bqOB-35">
          <mxGeometry width="26" height="30" as="geometry">
            <mxRectangle width="26" height="30" as="alternateBounds" />
          </mxGeometry>
        </mxCell>
        <mxCell id="hvP5qHsnFxrdEin9bqOB-37" value="Room ID" style="shape=partialRectangle;connectable=0;fillColor=none;top=0;left=0;bottom=0;right=0;align=left;spacingLeft=6;fontStyle=5;overflow=hidden;whiteSpace=wrap;html=1;" vertex="1" parent="hvP5qHsnFxrdEin9bqOB-35">
          <mxGeometry x="26" width="154" height="30" as="geometry">
            <mxRectangle width="154" height="30" as="alternateBounds" />
          </mxGeometry>
        </mxCell>
        <mxCell id="hvP5qHsnFxrdEin9bqOB-38" style="shape=tableRow;horizontal=0;startSize=0;swimlaneHead=0;swimlaneBody=0;fillColor=none;collapsible=0;dropTarget=0;points=[[0,0.5],[1,0.5]];portConstraint=eastwest;top=0;left=0;right=0;bottom=1;" vertex="1" parent="hvP5qHsnFxrdEin9bqOB-34">
          <mxGeometry y="60" width="180" height="30" as="geometry" />
        </mxCell>
        <mxCell id="hvP5qHsnFxrdEin9bqOB-39" value="FK" style="shape=partialRectangle;connectable=0;fillColor=none;top=0;left=0;bottom=0;right=0;fontStyle=1;overflow=hidden;whiteSpace=wrap;html=1;" vertex="1" parent="hvP5qHsnFxrdEin9bqOB-38">
          <mxGeometry width="26" height="30" as="geometry">
            <mxRectangle width="26" height="30" as="alternateBounds" />
          </mxGeometry>
        </mxCell>
        <mxCell id="hvP5qHsnFxrdEin9bqOB-40" value="Status ID" style="shape=partialRectangle;connectable=0;fillColor=none;top=0;left=0;bottom=0;right=0;align=left;spacingLeft=6;fontStyle=5;overflow=hidden;whiteSpace=wrap;html=1;" vertex="1" parent="hvP5qHsnFxrdEin9bqOB-38">
          <mxGeometry x="26" width="154" height="30" as="geometry">
            <mxRectangle width="154" height="30" as="alternateBounds" />
          </mxGeometry>
        </mxCell>
        <mxCell id="hvP5qHsnFxrdEin9bqOB-117" style="shape=tableRow;horizontal=0;startSize=0;swimlaneHead=0;swimlaneBody=0;fillColor=none;collapsible=0;dropTarget=0;points=[[0,0.5],[1,0.5]];portConstraint=eastwest;top=0;left=0;right=0;bottom=1;" vertex="1" parent="hvP5qHsnFxrdEin9bqOB-34">
          <mxGeometry y="90" width="180" height="30" as="geometry" />
        </mxCell>
        <mxCell id="hvP5qHsnFxrdEin9bqOB-118" value="FK" style="shape=partialRectangle;connectable=0;fillColor=none;top=0;left=0;bottom=0;right=0;fontStyle=1;overflow=hidden;whiteSpace=wrap;html=1;" vertex="1" parent="hvP5qHsnFxrdEin9bqOB-117">
          <mxGeometry width="26" height="30" as="geometry">
            <mxRectangle width="26" height="30" as="alternateBounds" />
          </mxGeometry>
        </mxCell>
        <mxCell id="hvP5qHsnFxrdEin9bqOB-119" value="User_ID" style="shape=partialRectangle;connectable=0;fillColor=none;top=0;left=0;bottom=0;right=0;align=left;spacingLeft=6;fontStyle=5;overflow=hidden;whiteSpace=wrap;html=1;" vertex="1" parent="hvP5qHsnFxrdEin9bqOB-117">
          <mxGeometry x="26" width="154" height="30" as="geometry">
            <mxRectangle width="154" height="30" as="alternateBounds" />
          </mxGeometry>
        </mxCell>
        <mxCell id="hvP5qHsnFxrdEin9bqOB-133" style="shape=tableRow;horizontal=0;startSize=0;swimlaneHead=0;swimlaneBody=0;fillColor=none;collapsible=0;dropTarget=0;points=[[0,0.5],[1,0.5]];portConstraint=eastwest;top=0;left=0;right=0;bottom=0;" vertex="1" parent="hvP5qHsnFxrdEin9bqOB-34">
          <mxGeometry y="120" width="180" height="30" as="geometry" />
        </mxCell>
        <mxCell id="hvP5qHsnFxrdEin9bqOB-134" style="shape=partialRectangle;connectable=0;fillColor=none;top=0;left=0;bottom=0;right=0;editable=1;overflow=hidden;whiteSpace=wrap;html=1;" vertex="1" parent="hvP5qHsnFxrdEin9bqOB-133">
          <mxGeometry width="26" height="30" as="geometry">
            <mxRectangle width="26" height="30" as="alternateBounds" />
          </mxGeometry>
        </mxCell>
        <mxCell id="hvP5qHsnFxrdEin9bqOB-135" value="Room Catagory" style="shape=partialRectangle;connectable=0;fillColor=none;top=0;left=0;bottom=0;right=0;align=left;spacingLeft=6;overflow=hidden;whiteSpace=wrap;html=1;" vertex="1" parent="hvP5qHsnFxrdEin9bqOB-133">
          <mxGeometry x="26" width="154" height="30" as="geometry">
            <mxRectangle width="154" height="30" as="alternateBounds" />
          </mxGeometry>
        </mxCell>
        <mxCell id="hvP5qHsnFxrdEin9bqOB-136" style="shape=tableRow;horizontal=0;startSize=0;swimlaneHead=0;swimlaneBody=0;fillColor=none;collapsible=0;dropTarget=0;points=[[0,0.5],[1,0.5]];portConstraint=eastwest;top=0;left=0;right=0;bottom=0;" vertex="1" parent="hvP5qHsnFxrdEin9bqOB-34">
          <mxGeometry y="150" width="180" height="30" as="geometry" />
        </mxCell>
        <mxCell id="hvP5qHsnFxrdEin9bqOB-137" style="shape=partialRectangle;connectable=0;fillColor=none;top=0;left=0;bottom=0;right=0;editable=1;overflow=hidden;whiteSpace=wrap;html=1;" vertex="1" parent="hvP5qHsnFxrdEin9bqOB-136">
          <mxGeometry width="26" height="30" as="geometry">
            <mxRectangle width="26" height="30" as="alternateBounds" />
          </mxGeometry>
        </mxCell>
        <mxCell id="hvP5qHsnFxrdEin9bqOB-138" value="Room Price" style="shape=partialRectangle;connectable=0;fillColor=none;top=0;left=0;bottom=0;right=0;align=left;spacingLeft=6;overflow=hidden;whiteSpace=wrap;html=1;" vertex="1" parent="hvP5qHsnFxrdEin9bqOB-136">
          <mxGeometry x="26" width="154" height="30" as="geometry">
            <mxRectangle width="154" height="30" as="alternateBounds" />
          </mxGeometry>
        </mxCell>
        <mxCell id="hvP5qHsnFxrdEin9bqOB-171" style="shape=tableRow;horizontal=0;startSize=0;swimlaneHead=0;swimlaneBody=0;fillColor=none;collapsible=0;dropTarget=0;points=[[0,0.5],[1,0.5]];portConstraint=eastwest;top=0;left=0;right=0;bottom=0;" vertex="1" parent="hvP5qHsnFxrdEin9bqOB-34">
          <mxGeometry y="180" width="180" height="30" as="geometry" />
        </mxCell>
        <mxCell id="hvP5qHsnFxrdEin9bqOB-172" style="shape=partialRectangle;connectable=0;fillColor=none;top=0;left=0;bottom=0;right=0;editable=1;overflow=hidden;whiteSpace=wrap;html=1;" vertex="1" parent="hvP5qHsnFxrdEin9bqOB-171">
          <mxGeometry width="26" height="30" as="geometry">
            <mxRectangle width="26" height="30" as="alternateBounds" />
          </mxGeometry>
        </mxCell>
        <mxCell id="hvP5qHsnFxrdEin9bqOB-173" value="Status" style="shape=partialRectangle;connectable=0;fillColor=none;top=0;left=0;bottom=0;right=0;align=left;spacingLeft=6;overflow=hidden;whiteSpace=wrap;html=1;" vertex="1" parent="hvP5qHsnFxrdEin9bqOB-171">
          <mxGeometry x="26" width="154" height="30" as="geometry">
            <mxRectangle width="154" height="30" as="alternateBounds" />
          </mxGeometry>
        </mxCell>
        <mxCell id="hvP5qHsnFxrdEin9bqOB-44" value="" style="shape=tableRow;horizontal=0;startSize=0;swimlaneHead=0;swimlaneBody=0;fillColor=none;collapsible=0;dropTarget=0;points=[[0,0.5],[1,0.5]];portConstraint=eastwest;top=0;left=0;right=0;bottom=0;" vertex="1" parent="hvP5qHsnFxrdEin9bqOB-34">
          <mxGeometry y="210" width="180" height="30" as="geometry" />
        </mxCell>
        <mxCell id="hvP5qHsnFxrdEin9bqOB-45" value="" style="shape=partialRectangle;connectable=0;fillColor=none;top=0;left=0;bottom=0;right=0;editable=1;overflow=hidden;whiteSpace=wrap;html=1;" vertex="1" parent="hvP5qHsnFxrdEin9bqOB-44">
          <mxGeometry width="26" height="30" as="geometry">
            <mxRectangle width="26" height="30" as="alternateBounds" />
          </mxGeometry>
        </mxCell>
        <mxCell id="hvP5qHsnFxrdEin9bqOB-46" value="Booking Date_Time&amp;nbsp;" style="shape=partialRectangle;connectable=0;fillColor=none;top=0;left=0;bottom=0;right=0;align=left;spacingLeft=6;overflow=hidden;whiteSpace=wrap;html=1;" vertex="1" parent="hvP5qHsnFxrdEin9bqOB-44">
          <mxGeometry x="26" width="154" height="30" as="geometry">
            <mxRectangle width="154" height="30" as="alternateBounds" />
          </mxGeometry>
        </mxCell>
        <mxCell id="hvP5qHsnFxrdEin9bqOB-50" style="shape=tableRow;horizontal=0;startSize=0;swimlaneHead=0;swimlaneBody=0;fillColor=none;collapsible=0;dropTarget=0;points=[[0,0.5],[1,0.5]];portConstraint=eastwest;top=0;left=0;right=0;bottom=0;" vertex="1" parent="hvP5qHsnFxrdEin9bqOB-34">
          <mxGeometry y="240" width="180" height="30" as="geometry" />
        </mxCell>
        <mxCell id="hvP5qHsnFxrdEin9bqOB-51" style="shape=partialRectangle;connectable=0;fillColor=none;top=0;left=0;bottom=0;right=0;editable=1;overflow=hidden;whiteSpace=wrap;html=1;" vertex="1" parent="hvP5qHsnFxrdEin9bqOB-50">
          <mxGeometry width="26" height="30" as="geometry">
            <mxRectangle width="26" height="30" as="alternateBounds" />
          </mxGeometry>
        </mxCell>
        <mxCell id="hvP5qHsnFxrdEin9bqOB-52" value="Check_In" style="shape=partialRectangle;connectable=0;fillColor=none;top=0;left=0;bottom=0;right=0;align=left;spacingLeft=6;overflow=hidden;whiteSpace=wrap;html=1;" vertex="1" parent="hvP5qHsnFxrdEin9bqOB-50">
          <mxGeometry x="26" width="154" height="30" as="geometry">
            <mxRectangle width="154" height="30" as="alternateBounds" />
          </mxGeometry>
        </mxCell>
        <mxCell id="hvP5qHsnFxrdEin9bqOB-53" style="shape=tableRow;horizontal=0;startSize=0;swimlaneHead=0;swimlaneBody=0;fillColor=none;collapsible=0;dropTarget=0;points=[[0,0.5],[1,0.5]];portConstraint=eastwest;top=0;left=0;right=0;bottom=0;" vertex="1" parent="hvP5qHsnFxrdEin9bqOB-34">
          <mxGeometry y="270" width="180" height="30" as="geometry" />
        </mxCell>
        <mxCell id="hvP5qHsnFxrdEin9bqOB-54" style="shape=partialRectangle;connectable=0;fillColor=none;top=0;left=0;bottom=0;right=0;editable=1;overflow=hidden;whiteSpace=wrap;html=1;" vertex="1" parent="hvP5qHsnFxrdEin9bqOB-53">
          <mxGeometry width="26" height="30" as="geometry">
            <mxRectangle width="26" height="30" as="alternateBounds" />
          </mxGeometry>
        </mxCell>
        <mxCell id="hvP5qHsnFxrdEin9bqOB-55" value="Check_Out" style="shape=partialRectangle;connectable=0;fillColor=none;top=0;left=0;bottom=0;right=0;align=left;spacingLeft=6;overflow=hidden;whiteSpace=wrap;html=1;" vertex="1" parent="hvP5qHsnFxrdEin9bqOB-53">
          <mxGeometry x="26" width="154" height="30" as="geometry">
            <mxRectangle width="154" height="30" as="alternateBounds" />
          </mxGeometry>
        </mxCell>
        <mxCell id="hvP5qHsnFxrdEin9bqOB-90" value="Legal Docs" style="shape=table;startSize=30;container=1;collapsible=1;childLayout=tableLayout;fixedRows=1;rowLines=0;fontStyle=1;align=center;resizeLast=1;html=1;" vertex="1" parent="1">
          <mxGeometry x="300" y="320" width="180" height="150" as="geometry" />
        </mxCell>
        <mxCell id="hvP5qHsnFxrdEin9bqOB-91" value="" style="shape=tableRow;horizontal=0;startSize=0;swimlaneHead=0;swimlaneBody=0;fillColor=none;collapsible=0;dropTarget=0;points=[[0,0.5],[1,0.5]];portConstraint=eastwest;top=0;left=0;right=0;bottom=1;" vertex="1" parent="hvP5qHsnFxrdEin9bqOB-90">
          <mxGeometry y="30" width="180" height="30" as="geometry" />
        </mxCell>
        <mxCell id="hvP5qHsnFxrdEin9bqOB-92" value="PK" style="shape=partialRectangle;connectable=0;fillColor=none;top=0;left=0;bottom=0;right=0;fontStyle=1;overflow=hidden;whiteSpace=wrap;html=1;" vertex="1" parent="hvP5qHsnFxrdEin9bqOB-91">
          <mxGeometry width="26" height="30" as="geometry">
            <mxRectangle width="26" height="30" as="alternateBounds" />
          </mxGeometry>
        </mxCell>
        <mxCell id="hvP5qHsnFxrdEin9bqOB-93" value="Ldoc ID" style="shape=partialRectangle;connectable=0;fillColor=none;top=0;left=0;bottom=0;right=0;align=left;spacingLeft=6;fontStyle=5;overflow=hidden;whiteSpace=wrap;html=1;" vertex="1" parent="hvP5qHsnFxrdEin9bqOB-91">
          <mxGeometry x="26" width="154" height="30" as="geometry">
            <mxRectangle width="154" height="30" as="alternateBounds" />
          </mxGeometry>
        </mxCell>
        <mxCell id="hvP5qHsnFxrdEin9bqOB-94" style="shape=tableRow;horizontal=0;startSize=0;swimlaneHead=0;swimlaneBody=0;fillColor=none;collapsible=0;dropTarget=0;points=[[0,0.5],[1,0.5]];portConstraint=eastwest;top=0;left=0;right=0;bottom=1;" vertex="1" parent="hvP5qHsnFxrdEin9bqOB-90">
          <mxGeometry y="60" width="180" height="30" as="geometry" />
        </mxCell>
        <mxCell id="hvP5qHsnFxrdEin9bqOB-95" value="FK" style="shape=partialRectangle;connectable=0;fillColor=none;top=0;left=0;bottom=0;right=0;fontStyle=1;overflow=hidden;whiteSpace=wrap;html=1;" vertex="1" parent="hvP5qHsnFxrdEin9bqOB-94">
          <mxGeometry width="26" height="30" as="geometry">
            <mxRectangle width="26" height="30" as="alternateBounds" />
          </mxGeometry>
        </mxCell>
        <mxCell id="hvP5qHsnFxrdEin9bqOB-96" value="User_ID" style="shape=partialRectangle;connectable=0;fillColor=none;top=0;left=0;bottom=0;right=0;align=left;spacingLeft=6;fontStyle=5;overflow=hidden;whiteSpace=wrap;html=1;" vertex="1" parent="hvP5qHsnFxrdEin9bqOB-94">
          <mxGeometry x="26" width="154" height="30" as="geometry">
            <mxRectangle width="154" height="30" as="alternateBounds" />
          </mxGeometry>
        </mxCell>
        <mxCell id="hvP5qHsnFxrdEin9bqOB-97" value="" style="shape=tableRow;horizontal=0;startSize=0;swimlaneHead=0;swimlaneBody=0;fillColor=none;collapsible=0;dropTarget=0;points=[[0,0.5],[1,0.5]];portConstraint=eastwest;top=0;left=0;right=0;bottom=0;" vertex="1" parent="hvP5qHsnFxrdEin9bqOB-90">
          <mxGeometry y="90" width="180" height="30" as="geometry" />
        </mxCell>
        <mxCell id="hvP5qHsnFxrdEin9bqOB-98" value="" style="shape=partialRectangle;connectable=0;fillColor=none;top=0;left=0;bottom=0;right=0;editable=1;overflow=hidden;whiteSpace=wrap;html=1;" vertex="1" parent="hvP5qHsnFxrdEin9bqOB-97">
          <mxGeometry width="26" height="30" as="geometry">
            <mxRectangle width="26" height="30" as="alternateBounds" />
          </mxGeometry>
        </mxCell>
        <mxCell id="hvP5qHsnFxrdEin9bqOB-99" value="Citizenship Photo" style="shape=partialRectangle;connectable=0;fillColor=none;top=0;left=0;bottom=0;right=0;align=left;spacingLeft=6;overflow=hidden;whiteSpace=wrap;html=1;" vertex="1" parent="hvP5qHsnFxrdEin9bqOB-97">
          <mxGeometry x="26" width="154" height="30" as="geometry">
            <mxRectangle width="154" height="30" as="alternateBounds" />
          </mxGeometry>
        </mxCell>
        <mxCell id="hvP5qHsnFxrdEin9bqOB-100" style="shape=tableRow;horizontal=0;startSize=0;swimlaneHead=0;swimlaneBody=0;fillColor=none;collapsible=0;dropTarget=0;points=[[0,0.5],[1,0.5]];portConstraint=eastwest;top=0;left=0;right=0;bottom=0;" vertex="1" parent="hvP5qHsnFxrdEin9bqOB-90">
          <mxGeometry y="120" width="180" height="30" as="geometry" />
        </mxCell>
        <mxCell id="hvP5qHsnFxrdEin9bqOB-101" style="shape=partialRectangle;connectable=0;fillColor=none;top=0;left=0;bottom=0;right=0;editable=1;overflow=hidden;whiteSpace=wrap;html=1;" vertex="1" parent="hvP5qHsnFxrdEin9bqOB-100">
          <mxGeometry width="26" height="30" as="geometry">
            <mxRectangle width="26" height="30" as="alternateBounds" />
          </mxGeometry>
        </mxCell>
        <mxCell id="hvP5qHsnFxrdEin9bqOB-102" value="Passport Photo" style="shape=partialRectangle;connectable=0;fillColor=none;top=0;left=0;bottom=0;right=0;align=left;spacingLeft=6;overflow=hidden;whiteSpace=wrap;html=1;" vertex="1" parent="hvP5qHsnFxrdEin9bqOB-100">
          <mxGeometry x="26" width="154" height="30" as="geometry">
            <mxRectangle width="154" height="30" as="alternateBounds" />
          </mxGeometry>
        </mxCell>
        <mxCell id="hvP5qHsnFxrdEin9bqOB-103" value="" style="edgeStyle=entityRelationEdgeStyle;fontSize=12;html=1;endArrow=ERzeroToMany;startArrow=ERmandOne;rounded=0;entryX=0;entryY=0.5;entryDx=0;entryDy=0;exitX=0.997;exitY=0.663;exitDx=0;exitDy=0;exitPerimeter=0;" edge="1" parent="1" source="hvP5qHsnFxrdEin9bqOB-2" target="hvP5qHsnFxrdEin9bqOB-91">
          <mxGeometry width="100" height="100" relative="1" as="geometry">
            <mxPoint x="121.18" y="379.99999999999994" as="sourcePoint" />
            <mxPoint x="370" y="435.81" as="targetPoint" />
            <Array as="points">
              <mxPoint x="140" y="380.81" />
            </Array>
          </mxGeometry>
        </mxCell>
        <mxCell id="hvP5qHsnFxrdEin9bqOB-104" value="" style="edgeStyle=entityRelationEdgeStyle;fontSize=12;html=1;endArrow=ERzeroToMany;startArrow=ERmandOne;rounded=0;entryX=0;entryY=0.5;entryDx=0;entryDy=0;exitX=1;exitY=0.233;exitDx=0;exitDy=0;exitPerimeter=0;" edge="1" parent="1" source="hvP5qHsnFxrdEin9bqOB-2" target="hvP5qHsnFxrdEin9bqOB-35">
          <mxGeometry width="100" height="100" relative="1" as="geometry">
            <mxPoint x="264" y="120" as="sourcePoint" />
            <mxPoint x="414" y="410.81" as="targetPoint" />
            <Array as="points">
              <mxPoint x="184" y="355.81" />
            </Array>
          </mxGeometry>
        </mxCell>
        <mxCell id="hvP5qHsnFxrdEin9bqOB-120" value="Billing" style="shape=table;startSize=30;container=1;collapsible=1;childLayout=tableLayout;fixedRows=1;rowLines=0;fontStyle=1;align=center;resizeLast=1;html=1;" vertex="1" parent="1">
          <mxGeometry x="-210" y="120" width="180" height="360" as="geometry">
            <mxRectangle x="-210" y="120" width="70" height="30" as="alternateBounds" />
          </mxGeometry>
        </mxCell>
        <mxCell id="hvP5qHsnFxrdEin9bqOB-121" value="" style="shape=tableRow;horizontal=0;startSize=0;swimlaneHead=0;swimlaneBody=0;fillColor=none;collapsible=0;dropTarget=0;points=[[0,0.5],[1,0.5]];portConstraint=eastwest;top=0;left=0;right=0;bottom=1;" vertex="1" parent="hvP5qHsnFxrdEin9bqOB-120">
          <mxGeometry y="30" width="180" height="30" as="geometry" />
        </mxCell>
        <mxCell id="hvP5qHsnFxrdEin9bqOB-122" value="PK" style="shape=partialRectangle;connectable=0;fillColor=none;top=0;left=0;bottom=0;right=0;fontStyle=1;overflow=hidden;whiteSpace=wrap;html=1;" vertex="1" parent="hvP5qHsnFxrdEin9bqOB-121">
          <mxGeometry width="26" height="30" as="geometry">
            <mxRectangle width="26" height="30" as="alternateBounds" />
          </mxGeometry>
        </mxCell>
        <mxCell id="hvP5qHsnFxrdEin9bqOB-123" value="Bill_no" style="shape=partialRectangle;connectable=0;fillColor=none;top=0;left=0;bottom=0;right=0;align=left;spacingLeft=6;fontStyle=5;overflow=hidden;whiteSpace=wrap;html=1;" vertex="1" parent="hvP5qHsnFxrdEin9bqOB-121">
          <mxGeometry x="26" width="154" height="30" as="geometry">
            <mxRectangle width="154" height="30" as="alternateBounds" />
          </mxGeometry>
        </mxCell>
        <mxCell id="hvP5qHsnFxrdEin9bqOB-124" style="shape=tableRow;horizontal=0;startSize=0;swimlaneHead=0;swimlaneBody=0;fillColor=none;collapsible=0;dropTarget=0;points=[[0,0.5],[1,0.5]];portConstraint=eastwest;top=0;left=0;right=0;bottom=1;" vertex="1" parent="hvP5qHsnFxrdEin9bqOB-120">
          <mxGeometry y="60" width="180" height="30" as="geometry" />
        </mxCell>
        <mxCell id="hvP5qHsnFxrdEin9bqOB-125" value="FK" style="shape=partialRectangle;connectable=0;fillColor=none;top=0;left=0;bottom=0;right=0;fontStyle=1;overflow=hidden;whiteSpace=wrap;html=1;" vertex="1" parent="hvP5qHsnFxrdEin9bqOB-124">
          <mxGeometry width="26" height="30" as="geometry">
            <mxRectangle width="26" height="30" as="alternateBounds" />
          </mxGeometry>
        </mxCell>
        <mxCell id="hvP5qHsnFxrdEin9bqOB-126" value="User_ID" style="shape=partialRectangle;connectable=0;fillColor=none;top=0;left=0;bottom=0;right=0;align=left;spacingLeft=6;fontStyle=5;overflow=hidden;whiteSpace=wrap;html=1;" vertex="1" parent="hvP5qHsnFxrdEin9bqOB-124">
          <mxGeometry x="26" width="154" height="30" as="geometry">
            <mxRectangle width="154" height="30" as="alternateBounds" />
          </mxGeometry>
        </mxCell>
        <mxCell id="hvP5qHsnFxrdEin9bqOB-127" value="" style="shape=tableRow;horizontal=0;startSize=0;swimlaneHead=0;swimlaneBody=0;fillColor=none;collapsible=0;dropTarget=0;points=[[0,0.5],[1,0.5]];portConstraint=eastwest;top=0;left=0;right=0;bottom=0;" vertex="1" parent="hvP5qHsnFxrdEin9bqOB-120">
          <mxGeometry y="90" width="180" height="30" as="geometry" />
        </mxCell>
        <mxCell id="hvP5qHsnFxrdEin9bqOB-128" value="" style="shape=partialRectangle;connectable=0;fillColor=none;top=0;left=0;bottom=0;right=0;editable=1;overflow=hidden;whiteSpace=wrap;html=1;" vertex="1" parent="hvP5qHsnFxrdEin9bqOB-127">
          <mxGeometry width="26" height="30" as="geometry">
            <mxRectangle width="26" height="30" as="alternateBounds" />
          </mxGeometry>
        </mxCell>
        <mxCell id="hvP5qHsnFxrdEin9bqOB-129" value="Item" style="shape=partialRectangle;connectable=0;fillColor=none;top=0;left=0;bottom=0;right=0;align=left;spacingLeft=6;overflow=hidden;whiteSpace=wrap;html=1;" vertex="1" parent="hvP5qHsnFxrdEin9bqOB-127">
          <mxGeometry x="26" width="154" height="30" as="geometry">
            <mxRectangle width="154" height="30" as="alternateBounds" />
          </mxGeometry>
        </mxCell>
        <mxCell id="hvP5qHsnFxrdEin9bqOB-151" style="shape=tableRow;horizontal=0;startSize=0;swimlaneHead=0;swimlaneBody=0;fillColor=none;collapsible=0;dropTarget=0;points=[[0,0.5],[1,0.5]];portConstraint=eastwest;top=0;left=0;right=0;bottom=0;" vertex="1" parent="hvP5qHsnFxrdEin9bqOB-120">
          <mxGeometry y="120" width="180" height="30" as="geometry" />
        </mxCell>
        <mxCell id="hvP5qHsnFxrdEin9bqOB-152" style="shape=partialRectangle;connectable=0;fillColor=none;top=0;left=0;bottom=0;right=0;editable=1;overflow=hidden;whiteSpace=wrap;html=1;" vertex="1" parent="hvP5qHsnFxrdEin9bqOB-151">
          <mxGeometry width="26" height="30" as="geometry">
            <mxRectangle width="26" height="30" as="alternateBounds" />
          </mxGeometry>
        </mxCell>
        <mxCell id="hvP5qHsnFxrdEin9bqOB-153" value="Quantity" style="shape=partialRectangle;connectable=0;fillColor=none;top=0;left=0;bottom=0;right=0;align=left;spacingLeft=6;overflow=hidden;whiteSpace=wrap;html=1;" vertex="1" parent="hvP5qHsnFxrdEin9bqOB-151">
          <mxGeometry x="26" width="154" height="30" as="geometry">
            <mxRectangle width="154" height="30" as="alternateBounds" />
          </mxGeometry>
        </mxCell>
        <mxCell id="hvP5qHsnFxrdEin9bqOB-154" style="shape=tableRow;horizontal=0;startSize=0;swimlaneHead=0;swimlaneBody=0;fillColor=none;collapsible=0;dropTarget=0;points=[[0,0.5],[1,0.5]];portConstraint=eastwest;top=0;left=0;right=0;bottom=0;" vertex="1" parent="hvP5qHsnFxrdEin9bqOB-120">
          <mxGeometry y="150" width="180" height="30" as="geometry" />
        </mxCell>
        <mxCell id="hvP5qHsnFxrdEin9bqOB-155" style="shape=partialRectangle;connectable=0;fillColor=none;top=0;left=0;bottom=0;right=0;editable=1;overflow=hidden;whiteSpace=wrap;html=1;" vertex="1" parent="hvP5qHsnFxrdEin9bqOB-154">
          <mxGeometry width="26" height="30" as="geometry">
            <mxRectangle width="26" height="30" as="alternateBounds" />
          </mxGeometry>
        </mxCell>
        <mxCell id="hvP5qHsnFxrdEin9bqOB-156" value="Rate" style="shape=partialRectangle;connectable=0;fillColor=none;top=0;left=0;bottom=0;right=0;align=left;spacingLeft=6;overflow=hidden;whiteSpace=wrap;html=1;" vertex="1" parent="hvP5qHsnFxrdEin9bqOB-154">
          <mxGeometry x="26" width="154" height="30" as="geometry">
            <mxRectangle width="154" height="30" as="alternateBounds" />
          </mxGeometry>
        </mxCell>
        <mxCell id="hvP5qHsnFxrdEin9bqOB-139" style="shape=tableRow;horizontal=0;startSize=0;swimlaneHead=0;swimlaneBody=0;fillColor=none;collapsible=0;dropTarget=0;points=[[0,0.5],[1,0.5]];portConstraint=eastwest;top=0;left=0;right=0;bottom=0;" vertex="1" parent="hvP5qHsnFxrdEin9bqOB-120">
          <mxGeometry y="180" width="180" height="30" as="geometry" />
        </mxCell>
        <mxCell id="hvP5qHsnFxrdEin9bqOB-140" style="shape=partialRectangle;connectable=0;fillColor=none;top=0;left=0;bottom=0;right=0;editable=1;overflow=hidden;whiteSpace=wrap;html=1;" vertex="1" parent="hvP5qHsnFxrdEin9bqOB-139">
          <mxGeometry width="26" height="30" as="geometry">
            <mxRectangle width="26" height="30" as="alternateBounds" />
          </mxGeometry>
        </mxCell>
        <mxCell id="hvP5qHsnFxrdEin9bqOB-141" value="Total Tax" style="shape=partialRectangle;connectable=0;fillColor=none;top=0;left=0;bottom=0;right=0;align=left;spacingLeft=6;overflow=hidden;whiteSpace=wrap;html=1;" vertex="1" parent="hvP5qHsnFxrdEin9bqOB-139">
          <mxGeometry x="26" width="154" height="30" as="geometry">
            <mxRectangle width="154" height="30" as="alternateBounds" />
          </mxGeometry>
        </mxCell>
        <mxCell id="hvP5qHsnFxrdEin9bqOB-145" style="shape=tableRow;horizontal=0;startSize=0;swimlaneHead=0;swimlaneBody=0;fillColor=none;collapsible=0;dropTarget=0;points=[[0,0.5],[1,0.5]];portConstraint=eastwest;top=0;left=0;right=0;bottom=0;" vertex="1" parent="hvP5qHsnFxrdEin9bqOB-120">
          <mxGeometry y="210" width="180" height="30" as="geometry" />
        </mxCell>
        <mxCell id="hvP5qHsnFxrdEin9bqOB-146" style="shape=partialRectangle;connectable=0;fillColor=none;top=0;left=0;bottom=0;right=0;editable=1;overflow=hidden;whiteSpace=wrap;html=1;" vertex="1" parent="hvP5qHsnFxrdEin9bqOB-145">
          <mxGeometry width="26" height="30" as="geometry">
            <mxRectangle width="26" height="30" as="alternateBounds" />
          </mxGeometry>
        </mxCell>
        <mxCell id="hvP5qHsnFxrdEin9bqOB-147" value="Total amount" style="shape=partialRectangle;connectable=0;fillColor=none;top=0;left=0;bottom=0;right=0;align=left;spacingLeft=6;overflow=hidden;whiteSpace=wrap;html=1;" vertex="1" parent="hvP5qHsnFxrdEin9bqOB-145">
          <mxGeometry x="26" width="154" height="30" as="geometry">
            <mxRectangle width="154" height="30" as="alternateBounds" />
          </mxGeometry>
        </mxCell>
        <mxCell id="hvP5qHsnFxrdEin9bqOB-162" style="shape=tableRow;horizontal=0;startSize=0;swimlaneHead=0;swimlaneBody=0;fillColor=none;collapsible=0;dropTarget=0;points=[[0,0.5],[1,0.5]];portConstraint=eastwest;top=0;left=0;right=0;bottom=0;" vertex="1" parent="hvP5qHsnFxrdEin9bqOB-120">
          <mxGeometry y="240" width="180" height="30" as="geometry" />
        </mxCell>
        <mxCell id="hvP5qHsnFxrdEin9bqOB-163" style="shape=partialRectangle;connectable=0;fillColor=none;top=0;left=0;bottom=0;right=0;editable=1;overflow=hidden;whiteSpace=wrap;html=1;" vertex="1" parent="hvP5qHsnFxrdEin9bqOB-162">
          <mxGeometry width="26" height="30" as="geometry">
            <mxRectangle width="26" height="30" as="alternateBounds" />
          </mxGeometry>
        </mxCell>
        <mxCell id="hvP5qHsnFxrdEin9bqOB-164" value="Billed by" style="shape=partialRectangle;connectable=0;fillColor=none;top=0;left=0;bottom=0;right=0;align=left;spacingLeft=6;overflow=hidden;whiteSpace=wrap;html=1;" vertex="1" parent="hvP5qHsnFxrdEin9bqOB-162">
          <mxGeometry x="26" width="154" height="30" as="geometry">
            <mxRectangle width="154" height="30" as="alternateBounds" />
          </mxGeometry>
        </mxCell>
        <mxCell id="hvP5qHsnFxrdEin9bqOB-142" style="shape=tableRow;horizontal=0;startSize=0;swimlaneHead=0;swimlaneBody=0;fillColor=none;collapsible=0;dropTarget=0;points=[[0,0.5],[1,0.5]];portConstraint=eastwest;top=0;left=0;right=0;bottom=0;" vertex="1" parent="hvP5qHsnFxrdEin9bqOB-120">
          <mxGeometry y="270" width="180" height="30" as="geometry" />
        </mxCell>
        <mxCell id="hvP5qHsnFxrdEin9bqOB-143" style="shape=partialRectangle;connectable=0;fillColor=none;top=0;left=0;bottom=0;right=0;editable=1;overflow=hidden;whiteSpace=wrap;html=1;" vertex="1" parent="hvP5qHsnFxrdEin9bqOB-142">
          <mxGeometry width="26" height="30" as="geometry">
            <mxRectangle width="26" height="30" as="alternateBounds" />
          </mxGeometry>
        </mxCell>
        <mxCell id="hvP5qHsnFxrdEin9bqOB-144" value="Discount" style="shape=partialRectangle;connectable=0;fillColor=none;top=0;left=0;bottom=0;right=0;align=left;spacingLeft=6;overflow=hidden;whiteSpace=wrap;html=1;" vertex="1" parent="hvP5qHsnFxrdEin9bqOB-142">
          <mxGeometry x="26" width="154" height="30" as="geometry">
            <mxRectangle width="154" height="30" as="alternateBounds" />
          </mxGeometry>
        </mxCell>
        <mxCell id="hvP5qHsnFxrdEin9bqOB-148" style="shape=tableRow;horizontal=0;startSize=0;swimlaneHead=0;swimlaneBody=0;fillColor=none;collapsible=0;dropTarget=0;points=[[0,0.5],[1,0.5]];portConstraint=eastwest;top=0;left=0;right=0;bottom=0;" vertex="1" parent="hvP5qHsnFxrdEin9bqOB-120">
          <mxGeometry y="300" width="180" height="30" as="geometry" />
        </mxCell>
        <mxCell id="hvP5qHsnFxrdEin9bqOB-149" style="shape=partialRectangle;connectable=0;fillColor=none;top=0;left=0;bottom=0;right=0;editable=1;overflow=hidden;whiteSpace=wrap;html=1;" vertex="1" parent="hvP5qHsnFxrdEin9bqOB-148">
          <mxGeometry width="26" height="30" as="geometry">
            <mxRectangle width="26" height="30" as="alternateBounds" />
          </mxGeometry>
        </mxCell>
        <mxCell id="hvP5qHsnFxrdEin9bqOB-150" value="Date TIme" style="shape=partialRectangle;connectable=0;fillColor=none;top=0;left=0;bottom=0;right=0;align=left;spacingLeft=6;overflow=hidden;whiteSpace=wrap;html=1;" vertex="1" parent="hvP5qHsnFxrdEin9bqOB-148">
          <mxGeometry x="26" width="154" height="30" as="geometry">
            <mxRectangle width="154" height="30" as="alternateBounds" />
          </mxGeometry>
        </mxCell>
        <mxCell id="hvP5qHsnFxrdEin9bqOB-168" style="shape=tableRow;horizontal=0;startSize=0;swimlaneHead=0;swimlaneBody=0;fillColor=none;collapsible=0;dropTarget=0;points=[[0,0.5],[1,0.5]];portConstraint=eastwest;top=0;left=0;right=0;bottom=0;" vertex="1" parent="hvP5qHsnFxrdEin9bqOB-120">
          <mxGeometry y="330" width="180" height="30" as="geometry" />
        </mxCell>
        <mxCell id="hvP5qHsnFxrdEin9bqOB-169" style="shape=partialRectangle;connectable=0;fillColor=none;top=0;left=0;bottom=0;right=0;editable=1;overflow=hidden;whiteSpace=wrap;html=1;" vertex="1" parent="hvP5qHsnFxrdEin9bqOB-168">
          <mxGeometry width="26" height="30" as="geometry">
            <mxRectangle width="26" height="30" as="alternateBounds" />
          </mxGeometry>
        </mxCell>
        <mxCell id="hvP5qHsnFxrdEin9bqOB-170" value="Status" style="shape=partialRectangle;connectable=0;fillColor=none;top=0;left=0;bottom=0;right=0;align=left;spacingLeft=6;overflow=hidden;whiteSpace=wrap;html=1;" vertex="1" parent="hvP5qHsnFxrdEin9bqOB-168">
          <mxGeometry x="26" width="154" height="30" as="geometry">
            <mxRectangle width="154" height="30" as="alternateBounds" />
          </mxGeometry>
        </mxCell>
        <mxCell id="hvP5qHsnFxrdEin9bqOB-161" value="" style="edgeStyle=entityRelationEdgeStyle;fontSize=12;html=1;endArrow=ERmandOne;startArrow=ERmandOne;rounded=0;exitX=0.998;exitY=0.038;exitDx=0;exitDy=0;exitPerimeter=0;" edge="1" parent="1" source="hvP5qHsnFxrdEin9bqOB-120">
          <mxGeometry width="100" height="100" relative="1" as="geometry">
            <mxPoint x="-60" y="220" as="sourcePoint" />
            <mxPoint x="40" y="120" as="targetPoint" />
          </mxGeometry>
        </mxCell>
        <mxCell id="hvP5qHsnFxrdEin9bqOB-187" value="login" style="shape=table;startSize=30;container=1;collapsible=1;childLayout=tableLayout;fixedRows=1;rowLines=0;fontStyle=1;align=center;resizeLast=1;html=1;" vertex="1" parent="1">
          <mxGeometry x="-150" y="-220" width="180" height="180" as="geometry" />
        </mxCell>
        <mxCell id="hvP5qHsnFxrdEin9bqOB-188" value="" style="shape=tableRow;horizontal=0;startSize=0;swimlaneHead=0;swimlaneBody=0;fillColor=none;collapsible=0;dropTarget=0;points=[[0,0.5],[1,0.5]];portConstraint=eastwest;top=0;left=0;right=0;bottom=1;" vertex="1" parent="hvP5qHsnFxrdEin9bqOB-187">
          <mxGeometry y="30" width="180" height="30" as="geometry" />
        </mxCell>
        <mxCell id="hvP5qHsnFxrdEin9bqOB-189" value="PK" style="shape=partialRectangle;connectable=0;fillColor=none;top=0;left=0;bottom=0;right=0;fontStyle=1;overflow=hidden;whiteSpace=wrap;html=1;" vertex="1" parent="hvP5qHsnFxrdEin9bqOB-188">
          <mxGeometry width="26" height="30" as="geometry">
            <mxRectangle width="26" height="30" as="alternateBounds" />
          </mxGeometry>
        </mxCell>
        <mxCell id="hvP5qHsnFxrdEin9bqOB-190" value="Username" style="shape=partialRectangle;connectable=0;fillColor=none;top=0;left=0;bottom=0;right=0;align=left;spacingLeft=6;fontStyle=5;overflow=hidden;whiteSpace=wrap;html=1;" vertex="1" parent="hvP5qHsnFxrdEin9bqOB-188">
          <mxGeometry x="26" width="154" height="30" as="geometry">
            <mxRectangle width="154" height="30" as="alternateBounds" />
          </mxGeometry>
        </mxCell>
        <mxCell id="hvP5qHsnFxrdEin9bqOB-191" style="shape=tableRow;horizontal=0;startSize=0;swimlaneHead=0;swimlaneBody=0;fillColor=none;collapsible=0;dropTarget=0;points=[[0,0.5],[1,0.5]];portConstraint=eastwest;top=0;left=0;right=0;bottom=1;" vertex="1" parent="hvP5qHsnFxrdEin9bqOB-187">
          <mxGeometry y="60" width="180" height="30" as="geometry" />
        </mxCell>
        <mxCell id="hvP5qHsnFxrdEin9bqOB-192" value="FK" style="shape=partialRectangle;connectable=0;fillColor=none;top=0;left=0;bottom=0;right=0;fontStyle=1;overflow=hidden;whiteSpace=wrap;html=1;" vertex="1" parent="hvP5qHsnFxrdEin9bqOB-191">
          <mxGeometry width="26" height="30" as="geometry">
            <mxRectangle width="26" height="30" as="alternateBounds" />
          </mxGeometry>
        </mxCell>
        <mxCell id="hvP5qHsnFxrdEin9bqOB-193" value="User_ID" style="shape=partialRectangle;connectable=0;fillColor=none;top=0;left=0;bottom=0;right=0;align=left;spacingLeft=6;fontStyle=5;overflow=hidden;whiteSpace=wrap;html=1;" vertex="1" parent="hvP5qHsnFxrdEin9bqOB-191">
          <mxGeometry x="26" width="154" height="30" as="geometry">
            <mxRectangle width="154" height="30" as="alternateBounds" />
          </mxGeometry>
        </mxCell>
        <mxCell id="hvP5qHsnFxrdEin9bqOB-200" style="shape=tableRow;horizontal=0;startSize=0;swimlaneHead=0;swimlaneBody=0;fillColor=none;collapsible=0;dropTarget=0;points=[[0,0.5],[1,0.5]];portConstraint=eastwest;top=0;left=0;right=0;bottom=1;" vertex="1" parent="hvP5qHsnFxrdEin9bqOB-187">
          <mxGeometry y="90" width="180" height="30" as="geometry" />
        </mxCell>
        <mxCell id="hvP5qHsnFxrdEin9bqOB-201" value="FK" style="shape=partialRectangle;connectable=0;fillColor=none;top=0;left=0;bottom=0;right=0;fontStyle=1;overflow=hidden;whiteSpace=wrap;html=1;" vertex="1" parent="hvP5qHsnFxrdEin9bqOB-200">
          <mxGeometry width="26" height="30" as="geometry">
            <mxRectangle width="26" height="30" as="alternateBounds" />
          </mxGeometry>
        </mxCell>
        <mxCell id="hvP5qHsnFxrdEin9bqOB-202" value="Role_ID" style="shape=partialRectangle;connectable=0;fillColor=none;top=0;left=0;bottom=0;right=0;align=left;spacingLeft=6;fontStyle=5;overflow=hidden;whiteSpace=wrap;html=1;" vertex="1" parent="hvP5qHsnFxrdEin9bqOB-200">
          <mxGeometry x="26" width="154" height="30" as="geometry">
            <mxRectangle width="154" height="30" as="alternateBounds" />
          </mxGeometry>
        </mxCell>
        <mxCell id="hvP5qHsnFxrdEin9bqOB-194" value="" style="shape=tableRow;horizontal=0;startSize=0;swimlaneHead=0;swimlaneBody=0;fillColor=none;collapsible=0;dropTarget=0;points=[[0,0.5],[1,0.5]];portConstraint=eastwest;top=0;left=0;right=0;bottom=0;" vertex="1" parent="hvP5qHsnFxrdEin9bqOB-187">
          <mxGeometry y="120" width="180" height="30" as="geometry" />
        </mxCell>
        <mxCell id="hvP5qHsnFxrdEin9bqOB-195" value="" style="shape=partialRectangle;connectable=0;fillColor=none;top=0;left=0;bottom=0;right=0;editable=1;overflow=hidden;whiteSpace=wrap;html=1;" vertex="1" parent="hvP5qHsnFxrdEin9bqOB-194">
          <mxGeometry width="26" height="30" as="geometry">
            <mxRectangle width="26" height="30" as="alternateBounds" />
          </mxGeometry>
        </mxCell>
        <mxCell id="hvP5qHsnFxrdEin9bqOB-196" value="Password" style="shape=partialRectangle;connectable=0;fillColor=none;top=0;left=0;bottom=0;right=0;align=left;spacingLeft=6;overflow=hidden;whiteSpace=wrap;html=1;" vertex="1" parent="hvP5qHsnFxrdEin9bqOB-194">
          <mxGeometry x="26" width="154" height="30" as="geometry">
            <mxRectangle width="154" height="30" as="alternateBounds" />
          </mxGeometry>
        </mxCell>
        <mxCell id="hvP5qHsnFxrdEin9bqOB-197" style="shape=tableRow;horizontal=0;startSize=0;swimlaneHead=0;swimlaneBody=0;fillColor=none;collapsible=0;dropTarget=0;points=[[0,0.5],[1,0.5]];portConstraint=eastwest;top=0;left=0;right=0;bottom=0;" vertex="1" parent="hvP5qHsnFxrdEin9bqOB-187">
          <mxGeometry y="150" width="180" height="30" as="geometry" />
        </mxCell>
        <mxCell id="hvP5qHsnFxrdEin9bqOB-198" style="shape=partialRectangle;connectable=0;fillColor=none;top=0;left=0;bottom=0;right=0;editable=1;overflow=hidden;whiteSpace=wrap;html=1;" vertex="1" parent="hvP5qHsnFxrdEin9bqOB-197">
          <mxGeometry width="26" height="30" as="geometry">
            <mxRectangle width="26" height="30" as="alternateBounds" />
          </mxGeometry>
        </mxCell>
        <mxCell id="hvP5qHsnFxrdEin9bqOB-199" value="" style="shape=partialRectangle;connectable=0;fillColor=none;top=0;left=0;bottom=0;right=0;align=left;spacingLeft=6;overflow=hidden;whiteSpace=wrap;html=1;" vertex="1" parent="hvP5qHsnFxrdEin9bqOB-197">
          <mxGeometry x="26" width="154" height="30" as="geometry">
            <mxRectangle width="154" height="30" as="alternateBounds" />
          </mxGeometry>
        </mxCell>
        <mxCell id="hvP5qHsnFxrdEin9bqOB-203" value="Role" style="shape=table;startSize=30;container=1;collapsible=1;childLayout=tableLayout;fixedRows=1;rowLines=0;fontStyle=1;align=center;resizeLast=1;html=1;" vertex="1" parent="1">
          <mxGeometry x="110" y="-190" width="180" height="120" as="geometry" />
        </mxCell>
        <mxCell id="hvP5qHsnFxrdEin9bqOB-204" value="" style="shape=tableRow;horizontal=0;startSize=0;swimlaneHead=0;swimlaneBody=0;fillColor=none;collapsible=0;dropTarget=0;points=[[0,0.5],[1,0.5]];portConstraint=eastwest;top=0;left=0;right=0;bottom=1;" vertex="1" parent="hvP5qHsnFxrdEin9bqOB-203">
          <mxGeometry y="30" width="180" height="30" as="geometry" />
        </mxCell>
        <mxCell id="hvP5qHsnFxrdEin9bqOB-205" value="PK" style="shape=partialRectangle;connectable=0;fillColor=none;top=0;left=0;bottom=0;right=0;fontStyle=1;overflow=hidden;whiteSpace=wrap;html=1;" vertex="1" parent="hvP5qHsnFxrdEin9bqOB-204">
          <mxGeometry width="26" height="30" as="geometry">
            <mxRectangle width="26" height="30" as="alternateBounds" />
          </mxGeometry>
        </mxCell>
        <mxCell id="hvP5qHsnFxrdEin9bqOB-206" value="Role_ID" style="shape=partialRectangle;connectable=0;fillColor=none;top=0;left=0;bottom=0;right=0;align=left;spacingLeft=6;fontStyle=5;overflow=hidden;whiteSpace=wrap;html=1;" vertex="1" parent="hvP5qHsnFxrdEin9bqOB-204">
          <mxGeometry x="26" width="154" height="30" as="geometry">
            <mxRectangle width="154" height="30" as="alternateBounds" />
          </mxGeometry>
        </mxCell>
        <mxCell id="hvP5qHsnFxrdEin9bqOB-207" style="shape=tableRow;horizontal=0;startSize=0;swimlaneHead=0;swimlaneBody=0;fillColor=none;collapsible=0;dropTarget=0;points=[[0,0.5],[1,0.5]];portConstraint=eastwest;top=0;left=0;right=0;bottom=1;" vertex="1" parent="hvP5qHsnFxrdEin9bqOB-203">
          <mxGeometry y="60" width="180" height="30" as="geometry" />
        </mxCell>
        <mxCell id="hvP5qHsnFxrdEin9bqOB-208" value="FK" style="shape=partialRectangle;connectable=0;fillColor=none;top=0;left=0;bottom=0;right=0;fontStyle=1;overflow=hidden;whiteSpace=wrap;html=1;" vertex="1" parent="hvP5qHsnFxrdEin9bqOB-207">
          <mxGeometry width="26" height="30" as="geometry">
            <mxRectangle width="26" height="30" as="alternateBounds" />
          </mxGeometry>
        </mxCell>
        <mxCell id="hvP5qHsnFxrdEin9bqOB-209" value="Username" style="shape=partialRectangle;connectable=0;fillColor=none;top=0;left=0;bottom=0;right=0;align=left;spacingLeft=6;fontStyle=5;overflow=hidden;whiteSpace=wrap;html=1;" vertex="1" parent="hvP5qHsnFxrdEin9bqOB-207">
          <mxGeometry x="26" width="154" height="30" as="geometry">
            <mxRectangle width="154" height="30" as="alternateBounds" />
          </mxGeometry>
        </mxCell>
        <mxCell id="hvP5qHsnFxrdEin9bqOB-213" value="" style="shape=tableRow;horizontal=0;startSize=0;swimlaneHead=0;swimlaneBody=0;fillColor=none;collapsible=0;dropTarget=0;points=[[0,0.5],[1,0.5]];portConstraint=eastwest;top=0;left=0;right=0;bottom=0;" vertex="1" parent="hvP5qHsnFxrdEin9bqOB-203">
          <mxGeometry y="90" width="180" height="30" as="geometry" />
        </mxCell>
        <mxCell id="hvP5qHsnFxrdEin9bqOB-214" value="" style="shape=partialRectangle;connectable=0;fillColor=none;top=0;left=0;bottom=0;right=0;editable=1;overflow=hidden;whiteSpace=wrap;html=1;" vertex="1" parent="hvP5qHsnFxrdEin9bqOB-213">
          <mxGeometry width="26" height="30" as="geometry">
            <mxRectangle width="26" height="30" as="alternateBounds" />
          </mxGeometry>
        </mxCell>
        <mxCell id="hvP5qHsnFxrdEin9bqOB-215" value="Role name" style="shape=partialRectangle;connectable=0;fillColor=none;top=0;left=0;bottom=0;right=0;align=left;spacingLeft=6;overflow=hidden;whiteSpace=wrap;html=1;" vertex="1" parent="hvP5qHsnFxrdEin9bqOB-213">
          <mxGeometry x="26" width="154" height="30" as="geometry">
            <mxRectangle width="154" height="30" as="alternateBounds" />
          </mxGeometry>
        </mxCell>
        <mxCell id="hvP5qHsnFxrdEin9bqOB-220" value="" style="edgeStyle=entityRelationEdgeStyle;fontSize=12;html=1;endArrow=ERmandOne;startArrow=ERmandOne;rounded=0;entryX=0;entryY=0.5;entryDx=0;entryDy=0;exitX=1;exitY=0.5;exitDx=0;exitDy=0;" edge="1" parent="1" source="hvP5qHsnFxrdEin9bqOB-188" target="hvP5qHsnFxrdEin9bqOB-204">
          <mxGeometry width="100" height="100" relative="1" as="geometry">
            <mxPoint x="430" y="-120" as="sourcePoint" />
            <mxPoint x="530" y="-220" as="targetPoint" />
          </mxGeometry>
        </mxCell>
        <mxCell id="hvP5qHsnFxrdEin9bqOB-221" value="" style="edgeStyle=entityRelationEdgeStyle;fontSize=12;html=1;endArrow=ERmandOne;startArrow=ERmandOne;rounded=0;entryX=0;entryY=0;entryDx=0;entryDy=0;exitX=1;exitY=0.5;exitDx=0;exitDy=0;" edge="1" parent="1" source="hvP5qHsnFxrdEin9bqOB-191" target="hvP5qHsnFxrdEin9bqOB-1">
          <mxGeometry width="100" height="100" relative="1" as="geometry">
            <mxPoint x="-10" y="10" as="sourcePoint" />
            <mxPoint x="70" y="40" as="targetPoint" />
          </mxGeometry>
        </mxCell>
      </root>
    </mxGraphModel>
  </diagram>
</mxfile>
